<?xml version="1.0" encoding="utf-8" standalone="no"?>
<!DOCTYPE svg PUBLIC "-//W3C//DTD SVG 1.1//EN"
  "http://www.w3.org/Graphics/SVG/1.1/DTD/svg11.dtd">
<svg xmlns:xlink="http://www.w3.org/1999/xlink" width="684pt" height="192.924pt" viewBox="0 0 684 192.924" xmlns="http://www.w3.org/2000/svg" version="1.1">
 <metadata>
  <rdf:RDF xmlns:dc="http://purl.org/dc/elements/1.1/" xmlns:cc="http://creativecommons.org/ns#" xmlns:rdf="http://www.w3.org/1999/02/22-rdf-syntax-ns#">
   <cc:Work>
    <dc:type rdf:resource="http://purl.org/dc/dcmitype/StillImage"/>
    <dc:date>2026-09-28T05:01:48.999055</dc:date>
    <dc:format>image/svg+xml</dc:format>
    <dc:creator>
     <cc:Agent>
      <dc:title>Matplotlib v3.11.1, https://matplotlib.org/</dc:title>
     </cc:Agent>
    </dc:creator>
   </cc:Work>
  </rdf:RDF>
 </metadata>
 <defs>
  <style type="text/css">*{stroke-linejoin: round; stroke-linecap: butt}</style>
 </defs>
 <g id="figure_1">
  <g id="patch_1">
   <path d="M 0 192.924
L 684 192.924
L 684 0
L 0 0
z
" style="fill: #ffffff"/>
  </g>
  <g id="axes_1">
   <g id="patch_2">
    <path d="M 21.708 177.8238
L 215.892 177.8238
Q 223.704 177.8238 223.704 172.29366
L 223.704 42.73038
Q 223.704 37.20024 215.892 37.20024
L 21.708 37.20024
Q 13.896 37.20024 13.896 42.73038
L 13.896 172.29366
Q 13.896 177.8238 21.708 177.8238
z
" clip-path="url(#p9a6bf288de)" style="fill: #eff7fa; stroke: #a6c9ce; stroke-width: 1.4; stroke-linejoin: miter"/>
   </g>
   <g id="patch_3">
    <path d="M 244.908 177.8238
L 439.092 177.8238
Q 446.904 177.8238 446.904 172.29366
L 446.904 42.73038
Q 446.904 37.20024 439.092 37.20024
L 244.908 37.20024
Q 237.096 37.20024 237.096 42.73038
L 237.096 172.29366
Q 237.096 177.8238 244.908 177.8238
z
" clip-path="url(#p9a6bf288de)" style="fill: #eff7fa; stroke: #a6c9ce; stroke-width: 1.4; stroke-linejoin: miter"/>
   </g>
   <g id="patch_4">
    <path d="M 468.108 177.8238
L 662.292 177.8238
Q 670.104 177.8238 670.104 172.29366
L 670.104 42.73038
Q 670.104 37.20024 662.292 37.20024
L 468.108 37.20024
Q 460.296 37.20024 460.296 42.73038
L 460.296 172.29366
Q 460.296 177.8238 468.108 177.8238
z
" clip-path="url(#p9a6bf288de)" style="fill: #eff7fa; stroke: #a6c9ce; stroke-width: 1.4; stroke-linejoin: miter"/>
   </g>
   <g id="text_1">
    <text style="font-weight: 700; font-size: 16px; font-family: 'Malgun Gothic'; text-anchor: middle; fill: #087f8c" x="118.8" y="74.121977" transform="rotate(-0 118.8 74.121977)">① 무엇으로 예측하나?</text>
   </g>
   <g id="text_2">
    <text style="font-size: 13px; font-family: 'Malgun Gothic'; fill: #172d4f" transform="translate(67.815625 116.777009)">평균 · 인기 · 장르</text>
    <text style="font-size: 13px; font-family: 'Malgun Gothic'; fill: #172d4f" transform="translate(49.7375 138.227009)">다른 사용자 · 다른 영화</text>
   </g>
   <g id="text_3">
    <text style="font-weight: 700; font-size: 16px; font-family: 'Malgun Gothic'; text-anchor: middle; fill: #087f8c" x="342" y="74.070727" transform="rotate(-0 342 74.070727)">② 무엇을 잘했나?</text>
   </g>
   <g id="text_4">
    <text style="font-size: 13px; font-family: 'Malgun Gothic'; fill: #172d4f" transform="translate(272.448984 116.573884)">평점 오차: MAE / RMSE</text>
    <text style="font-size: 13px; font-family: 'Malgun Gothic'; fill: #172d4f" transform="translate(263.408906 138.023884)">적중과 순서: P / R / NDCG</text>
   </g>
   <g id="text_5">
    <text style="font-weight: 700; font-size: 16px; font-family: 'Malgun Gothic'; text-anchor: middle; fill: #087f8c" x="565.2" y="74.031977" transform="rotate(-0 565.2 74.031977)">③ 왜 결과가 달라졌나?</text>
   </g>
   <g id="text_6">
    <text style="font-size: 13px; font-family: 'Malgun Gothic'; fill: #172d4f" transform="translate(492.430469 116.875525)">같은 분할 · 후보 · 사용자</text>
    <text style="font-size: 13px; font-family: 'Malgun Gothic'; fill: #172d4f" transform="translate(489.422188 138.227009)">설정 하나 → 결과 → 설명</text>
   </g>
  </g>
  <g id="text_7">
   <text style="font-weight: 700; font-size: 20px; font-family: 'Malgun Gothic'; text-anchor: middle; fill: #172d4f" x="331.2" y="24.54375" transform="rotate(-0 331.2 24.54375)">같은 영화 데이터로 세 가지 질문에 답한다</text>
  </g>
 </g>
 <defs>
  <clipPath id="p9a6bf288de">
   <rect x="7.2" y="27.72" width="669.6" height="158.004"/>
  </clipPath>
 </defs>
</svg>
